<svg xmlns="http://www.w3.org/2000/svg" xmlns:xlink="http://www.w3.org/1999/xlink" contentStyleType="text/css" data-diagram-type="DESCRIPTION" height="1104px" preserveAspectRatio="none" style="width:629px;height:1104px;background:#FFFFFF;" version="1.1" viewBox="0 0 629 1104" width="629px" zoomAndPan="magnify"><title>Global Use Case</title><defs/><g><g class="title" data-source-line="1"><text fill="#000000" font-family="sans-serif" font-size="14" font-weight="bold" lengthAdjust="spacing" textLength="126.6699" x="244.165" y="22.9951">Global Use Case</text></g><!--cluster Global Use Case--><g class="cluster" data-entity="Global Use Case" data-source-line="10" data-uid="ent0005" id="cluster_Global Use Case"><rect fill="none" height="1054" rx="2.5" ry="2.5" style="stroke:#181818;stroke-width:1;" width="496" x="127" y="44.2969"/><text fill="#000000" font-family="sans-serif" font-size="14" font-weight="bold" lengthAdjust="spacing" textLength="126.6699" x="311.665" y="59.292">Global Use Case</text></g><!--entity UCLogin--><g class="entity" data-entity="UCLogin" data-source-line="12" data-uid="ent0006" id="entity_UCLogin"><ellipse cx="576.8804" cy="570.3205" fill="#F1F1F1" rx="29.8804" ry="14.5236" style="stroke:#181818;stroke-width:0.5;"/><text fill="#000000" font-family="sans-serif" font-size="14" lengthAdjust="spacing" textLength="38.0146" x="557.8731" y="574.9689">Login</text></g><!--entity UC1--><g class="entity" data-entity="UC1" data-source-line="15" data-uid="ent0007" id="entity_UC1"><ellipse cx="282.6782" cy="562.2325" fill="#F1F1F1" rx="122.6782" ry="26.9356" style="stroke:#181818;stroke-width:0.5;"/><text fill="#000000" font-family="sans-serif" font-size="14" lengthAdjust="spacing" textLength="225.0596" x="170.1484" y="566.881">Navigate and search equipment</text></g><!--entity UC2--><g class="entity" data-entity="UC2" data-source-line="16" data-uid="ent0008" id="entity_UC2"><ellipse cx="282.3521" cy="482.2673" fill="#F1F1F1" rx="75.3521" ry="17.4704" style="stroke:#181818;stroke-width:0.5;"/><text fill="#000000" font-family="sans-serif" font-size="14" lengthAdjust="spacing" textLength="119.5811" x="222.5616" y="486.9157">View dashboards</text></g><!--entity UC3--><g class="entity" data-entity="UC3" data-source-line="17" data-uid="ent0009" id="entity_UC3"><ellipse cx="282.7185" cy="99.5406" fill="#F1F1F1" rx="89.2185" ry="20.2437" style="stroke:#181818;stroke-width:0.5;"/><text fill="#000000" font-family="sans-serif" font-size="14" lengthAdjust="spacing" textLength="151.9697" x="206.7336" y="104.189">Download documents</text></g><!--entity UC4--><g class="entity" data-entity="UC4" data-source-line="18" data-uid="ent0010" id="entity_UC4"><ellipse cx="282.6235" cy="171.2216" fill="#F1F1F1" rx="72.6235" ry="16.9247" style="stroke:#181818;stroke-width:0.5;"/><text fill="#000000" font-family="sans-serif" font-size="14" lengthAdjust="spacing" textLength="112.916" x="226.1655" y="175.87">Sign documents</text></g><!--entity UC5--><g class="entity" data-entity="UC5" data-source-line="19" data-uid="ent0011" id="entity_UC5"><ellipse cx="282.3205" cy="250.061" fill="#F1F1F1" rx="121.8205" ry="26.7641" style="stroke:#181818;stroke-width:0.5;"/><text fill="#000000" font-family="sans-serif" font-size="14" lengthAdjust="spacing" textLength="223.2344" x="170.7034" y="254.7094">Access prediction module (RUL)</text></g><!--entity UC6--><g class="entity" data-entity="UC6" data-source-line="20" data-uid="ent0012" id="entity_UC6"><ellipse cx="282.3631" cy="332.2695" fill="#F1F1F1" rx="87.8631" ry="19.9726" style="stroke:#181818;stroke-width:0.5;"/><text fill="#000000" font-family="sans-serif" font-size="14" lengthAdjust="spacing" textLength="148.8867" x="207.9197" y="336.9179">Interact with Chatbot</text></g><!--entity UC7--><g class="entity" data-entity="UC7" data-source-line="21" data-uid="ent0013" id="entity_UC7"><ellipse cx="282.3275" cy="408.1624" fill="#F1F1F1" rx="92.3275" ry="20.8655" style="stroke:#181818;stroke-width:0.5;"/><text fill="#000000" font-family="sans-serif" font-size="14" lengthAdjust="spacing" textLength="158.9902" x="202.8324" y="412.8108">View user notifications</text></g><!--entity UC8--><g class="entity" data-entity="UC8" data-source-line="24" data-uid="ent0014" id="entity_UC8"><ellipse cx="282.6834" cy="640.5335" fill="#F1F1F1" rx="66.6834" ry="15.7367" style="stroke:#181818;stroke-width:0.5;"/><text fill="#000000" font-family="sans-serif" font-size="14" lengthAdjust="spacing" textLength="97.8906" x="233.738" y="645.182">Manage users</text></g><!--entity UC9--><g class="entity" data-entity="UC9" data-source-line="25" data-uid="ent0015" id="entity_UC9"><ellipse cx="282.6954" cy="710.136" fill="#F1F1F1" rx="82.1954" ry="18.8391" style="stroke:#181818;stroke-width:0.5;"/><text fill="#000000" font-family="sans-serif" font-size="14" lengthAdjust="spacing" textLength="135.8232" x="214.7838" y="714.7844">Manage equipment</text></g><!--entity UC10--><g class="entity" data-entity="UC10" data-source-line="26" data-uid="ent0016" id="entity_UC10"><ellipse cx="282.4606" cy="791.089" fill="#F1F1F1" rx="119.4606" ry="26.2921" style="stroke:#181818;stroke-width:0.5;"/><text fill="#000000" font-family="sans-serif" font-size="14" lengthAdjust="spacing" textLength="218.2031" x="173.3591" y="795.7374">Manage equipment documents</text></g><!--entity UC11--><g class="entity" data-entity="UC11" data-source-line="27" data-uid="ent0017" id="entity_UC11"><ellipse cx="282.3074" cy="875.3584" fill="#F1F1F1" rx="98.3074" ry="22.0615" style="stroke:#181818;stroke-width:0.5;"/><text fill="#000000" font-family="sans-serif" font-size="14" lengthAdjust="spacing" textLength="172.3203" x="196.1472" y="880.0068">View admin notifications</text></g><!--entity UC12--><g class="entity" data-entity="UC12" data-source-line="30" data-uid="ent0018" id="entity_UC12"><ellipse cx="282.7428" cy="963.1454" fill="#F1F1F1" rx="139.7428" ry="30.3486" style="stroke:#181818;stroke-width:0.5;"/><text fill="#000000" font-family="sans-serif" font-size="14" lengthAdjust="spacing" textLength="261.0645" x="152.2106" y="967.7939">Answer questions based on CSV data</text></g><!--entity UC13--><g class="entity" data-entity="UC13" data-source-line="31" data-uid="ent0019" id="entity_UC13"><ellipse cx="282.3865" cy="1055.2742" fill="#F1F1F1" rx="120.3865" ry="26.4773" style="stroke:#181818;stroke-width:0.5;"/><text fill="#000000" font-family="sans-serif" font-size="14" lengthAdjust="spacing" textLength="220.1787" x="172.2972" y="1059.9226">Generate diagrams for analysis</text></g><!--entity User--><g class="entity" data-entity="User" data-source-line="6" data-uid="ent0002" id="entity_User"><ellipse cx="42.9551" cy="272.7969" fill="#F1F1F1" rx="8" ry="8" style="stroke:#181818;stroke-width:0.5;"/><path d="M42.9551,280.7969 L42.9551,307.7969 M29.9551,288.7969 L55.9551,288.7969 M42.9551,307.7969 L29.9551,322.7969 M42.9551,307.7969 L55.9551,322.7969" fill="none" style="stroke:#181818;stroke-width:0.5;"/><text fill="#000000" font-family="sans-serif" font-size="14" lengthAdjust="spacing" textLength="31.9102" x="27" y="337.292">User</text></g><!--entity Admin--><g class="entity" data-entity="Admin" data-source-line="7" data-uid="ent0003" id="entity_Admin"><ellipse cx="42.9321" cy="559.7969" fill="#F1F1F1" rx="8" ry="8" style="stroke:#181818;stroke-width:0.5;"/><path d="M42.9321,567.7969 L42.9321,594.7969 M29.9321,575.7969 L55.9321,575.7969 M42.9321,594.7969 L29.9321,609.7969 M42.9321,594.7969 L55.9321,609.7969" fill="none" style="stroke:#181818;stroke-width:0.5;"/><text fill="#000000" font-family="sans-serif" font-size="14" lengthAdjust="spacing" textLength="44.8643" x="20.5" y="624.292">Admin</text></g><!--entity Chatbot--><g class="entity" data-entity="Chatbot" data-source-line="8" data-uid="ent0004" id="entity_Chatbot"><ellipse cx="42.9072" cy="985.7969" fill="#F1F1F1" rx="8" ry="8" style="stroke:#181818;stroke-width:0.5;"/><path d="M42.9072,993.7969 L42.9072,1020.7969 M29.9072,1001.7969 L55.9072,1001.7969 M42.9072,1020.7969 L29.9072,1035.7969 M42.9072,1020.7969 L55.9072,1035.7969" fill="none" style="stroke:#181818;stroke-width:0.5;"/><text fill="#000000" font-family="sans-serif" font-size="14" lengthAdjust="spacing" textLength="73.8145" x="6" y="1050.292">AI Chatbot</text></g><!--link User to UC1--><g class="link" data-entity-1="User" data-entity-2="UC1" data-source-line="35" data-uid="lnk20" id="link_User_UC1"><path d="M46.8,340.6969 C52.38,388.7969 69.08,470.5469 119,517.2969 C134.81,532.1069 149.3522,540.2673 170.1522,547.0073" fill="none" id="User-to-UC1" style="stroke:#181818;stroke-width:1;"/><polygon fill="#181818" points="175.86,548.8569,168.5313,542.2773,171.1035,547.3156,166.0652,549.8878,175.86,548.8569" style="stroke:#181818;stroke-width:1;"/></g><!--link User to UC2--><g class="link" data-entity-1="User" data-entity-2="UC2" data-source-line="36" data-uid="lnk21" id="link_User_UC2"><path d="M53.93,340.3969 C64.54,373.4369 84.67,419.9669 119,446.2969 C144.22,465.6469 171.833,474.1398 201.893,478.5298" fill="none" id="User-to-UC2" style="stroke:#181818;stroke-width:1;"/><polygon fill="#181818" points="207.83,479.3969,199.5025,474.1383,202.8825,478.6743,198.3464,482.0543,207.83,479.3969" style="stroke:#181818;stroke-width:1;"/></g><!--link User to UC3--><g class="link" data-entity-1="User" data-entity-2="UC3" data-source-line="37" data-uid="lnk22" id="link_User_UC3"><path d="M51.03,263.9969 C60.08,225.8669 79.58,168.5169 119,136.2969 C140.51,118.7169 162.8464,110.2517 189.7264,105.1217" fill="none" id="User-to-UC3" style="stroke:#181818;stroke-width:1;"/><polygon fill="#181818" points="195.62,103.9969,186.0297,101.755,190.7086,104.9342,187.5294,109.6131,195.62,103.9969" style="stroke:#181818;stroke-width:1;"/></g><!--link User to UC4--><g class="link" data-entity-1="User" data-entity-2="UC4" data-source-line="38" data-uid="lnk23" id="link_User_UC4"><path d="M59.05,273.0969 C71.97,251.0169 92.66,221.7869 119,205.2969 C146.48,188.0869 175.2493,180.2785 205.5293,175.9885" fill="none" id="User-to-UC4" style="stroke:#181818;stroke-width:1;"/><polygon fill="#181818" points="211.47,175.1469,201.9979,172.4489,206.5194,175.8483,203.1201,180.3698,211.47,175.1469" style="stroke:#181818;stroke-width:1;"/></g><!--link User to UC5--><g class="link" data-entity-1="User" data-entity-2="UC5" data-source-line="39" data-uid="lnk24" id="link_User_UC5"><path d="M59.15,298.1569 C72.49,294.5769 92.48,289.3369 110,285.2969 C135.91,279.3169 158.2606,274.5336 184.2006,269.2536" fill="none" id="User-to-UC5" style="stroke:#181818;stroke-width:1;"/><polygon fill="#181818" points="190.08,268.0569,180.463,265.9324,185.1805,269.0542,182.0587,273.7716,190.08,268.0569" style="stroke:#181818;stroke-width:1;"/></g><!--link User to UC6--><g class="link" data-entity-1="User" data-entity-2="UC6" data-source-line="40" data-uid="lnk25" id="link_User_UC6"><path d="M59.22,304.2169 C88.19,307.8769 147.0974,315.3144 199.3074,321.9144" fill="none" id="User-to-UC6" style="stroke:#181818;stroke-width:1;"/><polygon fill="#181818" points="205.26,322.6669,196.8327,317.5697,200.2995,322.0398,195.8294,325.5066,205.26,322.6669" style="stroke:#181818;stroke-width:1;"/></g><!--link User to UC7--><g class="link" data-entity-1="User" data-entity-2="UC7" data-source-line="41" data-uid="lnk26" id="link_User_UC7"><path d="M59.16,320.0869 C73.17,335.3969 95.33,356.9069 119,369.2969 C144.7,382.7569 169.251,390.3997 196.781,396.2497" fill="none" id="User-to-UC7" style="stroke:#181818;stroke-width:1;"/><polygon fill="#181818" points="202.65,397.4969,194.678,391.7135,197.7592,396.4576,193.0151,399.5388,202.65,397.4969" style="stroke:#181818;stroke-width:1;"/></g><!--link Admin to UC1--><g class="link" data-entity-1="Admin" data-entity-2="UC1" data-source-line="43" data-uid="lnk27" id="link_Admin_UC1"><path d="M65.67,597.1969 C78.39,601.4169 94.89,606.1669 110,608.2969 C115.19,609.0269 157.4946,597.6231 201.4246,585.2531" fill="none" id="Admin-to-UC1" style="stroke:#181818;stroke-width:1;"/><polygon fill="#181818" points="207.2,583.6269,197.4527,582.216,202.3872,584.9821,199.6211,589.9165,207.2,583.6269" style="stroke:#181818;stroke-width:1;"/></g><!--link Admin to UC2--><g class="link" data-entity-1="Admin" data-entity-2="UC2" data-source-line="44" data-uid="lnk28" id="link_Admin_UC2"><path d="M65.62,574.8069 C79.83,564.4769 98.12,549.5869 111,533.2969 C115.93,527.0569 112.72,522.1669 119,517.2969 C143.97,497.9269 171.3678,489.5574 201.3478,485.3674" fill="none" id="Admin-to-UC2" style="stroke:#181818;stroke-width:1;"/><polygon fill="#181818" points="207.29,484.5369,197.823,481.8211,202.3381,485.2289,198.9303,489.7441,207.29,484.5369" style="stroke:#181818;stroke-width:1;"/></g><!--link Admin to UC3--><g class="link" data-entity-1="Admin" data-entity-2="UC3" data-source-line="45" data-uid="lnk29" id="link_Admin_UC3"><path d="M50.05,551.0469 C67.24,442.4969 115.41,140.1069 119,136.2969 C138.24,115.8669 160.3225,106.6566 187.6725,101.7966" fill="none" id="Admin-to-UC3" style="stroke:#181818;stroke-width:1;"/><polygon fill="#181818" points="193.58,100.7469,184.019,98.3832,188.6571,101.6217,185.4186,106.2598,193.58,100.7469" style="stroke:#181818;stroke-width:1;"/></g><!--link Admin to UC4--><g class="link" data-entity-1="Admin" data-entity-2="UC4" data-source-line="46" data-uid="lnk30" id="link_Admin_UC4"><path d="M50.29,551.1269 C66.04,456.4769 106.77,217.6869 119,205.2969 C142.58,181.3969 172.3849,172.7524 204.3649,169.8324" fill="none" id="Admin-to-UC4" style="stroke:#181818;stroke-width:1;"/><polygon fill="#181818" points="210.34,169.2869,201.0136,166.1218,205.3607,169.7415,201.741,174.0887,210.34,169.2869" style="stroke:#181818;stroke-width:1;"/></g><!--link Admin to UC5--><g class="link" data-entity-1="Admin" data-entity-2="UC5" data-source-line="47" data-uid="lnk31" id="link_Admin_UC5"><path d="M48.89,551.0969 C58.76,479.8469 83.22,330.6369 119,294.2969 C133.76,279.3069 147.3854,271.1466 167.5154,264.4666" fill="none" id="Admin-to-UC5" style="stroke:#181818;stroke-width:1;"/><polygon fill="#181818" points="173.21,262.5769,163.4082,261.615,168.4645,264.1516,165.9279,269.2079,173.21,262.5769" style="stroke:#181818;stroke-width:1;"/></g><!--link Admin to UC6--><g class="link" data-entity-1="Admin" data-entity-2="UC6" data-source-line="48" data-uid="lnk32" id="link_Admin_UC6"><path d="M46.05,550.9269 C50.83,501.5169 66.67,416.4169 119,369.2969 C139.86,350.5169 162.3388,341.7413 189.5488,336.7413" fill="none" id="Admin-to-UC6" style="stroke:#181818;stroke-width:1;"/><polygon fill="#181818" points="195.45,335.6569,185.8753,333.3493,190.5323,336.5605,187.3211,341.2176,195.45,335.6569" style="stroke:#181818;stroke-width:1;"/></g><!--link Admin to UC7--><g class="link" data-entity-1="Admin" data-entity-2="UC7" data-source-line="49" data-uid="lnk33" id="link_Admin_UC7"><path d="M54.4,551.2169 C65.23,518.7669 85.42,473.3669 119,447.2969 C140.66,430.4869 162.5986,422.0024 189.0686,416.4324" fill="none" id="Admin-to-UC7" style="stroke:#181818;stroke-width:1;"/><polygon fill="#181818" points="194.94,415.1969,185.3092,413.1359,190.0472,416.2265,186.9565,420.9644,194.94,415.1969" style="stroke:#181818;stroke-width:1;"/></g><!--link Admin to UC8--><g class="link" data-entity-1="Admin" data-entity-2="UC8" data-source-line="50" data-uid="lnk34" id="link_Admin_UC8"><path d="M65.77,600.2769 C78.39,606.1969 94.75,613.1269 110,617.2969 C145.2,626.9369 179.6502,632.0055 212.4102,635.3055" fill="none" id="Admin-to-UC8" style="stroke:#181818;stroke-width:1;"/><polygon fill="#181818" points="218.38,635.9069,209.8262,631.025,213.4052,635.4057,209.0244,638.9847,218.38,635.9069" style="stroke:#181818;stroke-width:1;"/></g><!--link Admin to UC9--><g class="link" data-entity-1="Admin" data-entity-2="UC9" data-source-line="51" data-uid="lnk35" id="link_Admin_UC9"><path d="M65.65,622.1769 C78.99,639.9069 97.61,660.6869 119,673.2969 C145.29,688.8069 171.6066,696.7448 200.4066,701.9748" fill="none" id="Admin-to-UC9" style="stroke:#181818;stroke-width:1;"/><polygon fill="#181818" points="206.31,703.0469,198.1695,697.5032,201.3905,702.1535,196.7401,705.3744,206.31,703.0469" style="stroke:#181818;stroke-width:1;"/></g><!--link Admin to UC10--><g class="link" data-entity-1="Admin" data-entity-2="UC10" data-source-line="52" data-uid="lnk36" id="link_Admin_UC10"><path d="M52.57,627.5669 C62.55,663.3469 82.54,715.7369 119,746.2969 C136.39,760.8669 152.4015,768.9949 174.2815,775.6749" fill="none" id="Admin-to-UC10" style="stroke:#181818;stroke-width:1;"/><polygon fill="#181818" points="180.02,777.4269,172.5802,770.9732,175.2379,775.9669,170.2442,778.6246,180.02,777.4269" style="stroke:#181818;stroke-width:1;"/></g><!--link Admin to UC11--><g class="link" data-entity-1="Admin" data-entity-2="UC11" data-source-line="53" data-uid="lnk37" id="link_Admin_UC11"><path d="M44.5,627.3069 C47.35,681.4169 60.8,780.1969 119,835.2969 C137.67,852.9769 157.0073,861.8422 181.9673,867.6722" fill="none" id="Admin-to-UC11" style="stroke:#181818;stroke-width:1;"/><polygon fill="#181818" points="187.81,869.0369,179.9557,863.0947,182.9411,867.8996,178.1361,870.885,187.81,869.0369" style="stroke:#181818;stroke-width:1;"/></g><!--link Chatbot to UC12--><g class="link" data-entity-1="Chatbot" data-entity-2="UC12" data-source-line="55" data-uid="lnk38" id="link_Chatbot_UC12"><path d="M80.07,1007.3969 C107.58,1001.3769 140.9786,994.0591 177.5486,986.0591" fill="none" id="Chatbot-to-UC12" style="stroke:#181818;stroke-width:1;"/><polygon fill="#181818" points="183.41,984.7769,173.7631,982.7926,178.5255,985.8454,175.4727,990.6078,183.41,984.7769" style="stroke:#181818;stroke-width:1;"/></g><!--link Chatbot to UC13--><g class="link" data-entity-1="Chatbot" data-entity-2="UC13" data-source-line="56" data-uid="lnk39" id="link_Chatbot_UC13"><path d="M80.07,1021.3769 C108.3,1026.1269 142.9733,1031.9707 180.3333,1038.2607" fill="none" id="Chatbot-to-UC13" style="stroke:#181818;stroke-width:1;"/><polygon fill="#181818" points="186.25,1039.2569,178.039,1033.8182,181.3194,1038.4267,176.7108,1041.7071,186.25,1039.2569" style="stroke:#181818;stroke-width:1;"/></g><!--link UC2 to UCLogin--><g class="link" data-entity-1="UC2" data-entity-2="UCLogin" data-source-line="59" data-uid="lnk40" id="link_UC2_UCLogin"><path d="M336.4,494.5569 C362.34,500.8569 393.95,508.9469 422,517.2969 C468.88,531.2569 517.0994,548.4841 547.0894,559.5241" fill="none" id="UC2-to-UCLogin" style="stroke:#181818;stroke-width:1;stroke-dasharray:7.0,7.0;"/><polygon fill="#181818" points="552.72,561.5969,545.6559,554.734,548.0278,559.8696,542.8923,562.2415,552.72,561.5969" style="stroke:#181818;stroke-width:1;"/><text fill="#000000" font-family="sans-serif" font-size="13" lengthAdjust="spacing" textLength="63.0068" x="453" y="524.3638">&#171;include&#187;</text></g><!--link UC4 to UCLogin--><g class="link" data-entity-1="UC4" data-entity-2="UCLogin" data-source-line="60" data-uid="lnk41" id="link_UC4_UCLogin"><path d="M346.46,179.4269 C371.12,184.4369 398.96,192.4769 422,205.2969 C473.63,234.0269 488.42,246.5769 517,298.2969 C566.08,387.1169 574.1451,507.25 575.5251,549.71" fill="none" id="UC4-to-UCLogin" style="stroke:#181818;stroke-width:1;stroke-dasharray:7.0,7.0;"/><polygon fill="#181818" points="575.72,555.7069,579.4255,546.5817,575.5576,550.7095,571.4298,546.8416,575.72,555.7069" style="stroke:#181818;stroke-width:1;"/><text fill="#000000" font-family="sans-serif" font-size="13" lengthAdjust="spacing" textLength="63.0068" x="453" y="220.3638">&#171;include&#187;</text></g><!--link UC5 to UCLogin--><g class="link" data-entity-1="UC5" data-entity-2="UCLogin" data-source-line="61" data-uid="lnk42" id="link_UC5_UCLogin"><path d="M372.06,268.6469 C389.69,274.8969 407.28,283.2369 422,294.2969 C515.66,364.6669 558.6766,503.8261 570.8866,550.0161" fill="none" id="UC5-to-UCLogin" style="stroke:#181818;stroke-width:1;stroke-dasharray:7.0,7.0;"/><polygon fill="#181818" points="572.42,555.8169,573.9871,546.0935,571.1422,550.9829,566.2528,548.138,572.42,555.8169" style="stroke:#181818;stroke-width:1;"/><text fill="#000000" font-family="sans-serif" font-size="13" lengthAdjust="spacing" textLength="63.0068" x="453" y="319.3638">&#171;include&#187;</text></g><!--link UC7 to UCLogin--><g class="link" data-entity-1="UC7" data-entity-2="UCLogin" data-source-line="62" data-uid="lnk43" id="link_UC7_UCLogin"><path d="M348.82,422.9769 C372.34,429.2269 398.8,437.3869 422,447.2969 C467.07,466.5469 479.22,472.0669 517,503.2969 C536.47,519.3969 551.4419,537.378 562.3819,551.788" fill="none" id="UC7-to-UCLogin" style="stroke:#181818;stroke-width:1;stroke-dasharray:7.0,7.0;"/><polygon fill="#181818" points="566.01,556.5669,563.7538,546.9799,562.9866,552.5845,557.382,551.8173,566.01,556.5669" style="stroke:#181818;stroke-width:1;"/><text fill="#000000" font-family="sans-serif" font-size="13" lengthAdjust="spacing" textLength="63.0068" x="453" y="457.3638">&#171;include&#187;</text></g><!--link UC8 to UCLogin--><g class="link" data-entity-1="UC8" data-entity-2="UCLogin" data-source-line="63" data-uid="lnk44" id="link_UC8_UCLogin"><path d="M329.52,629.2869 C391.63,614.4169 494.3446,589.8326 544.0146,577.9526" fill="none" id="UC8-to-UCLogin" style="stroke:#181818;stroke-width:1;stroke-dasharray:7.0,7.0;"/><polygon fill="#181818" points="549.85,576.5569,540.1664,574.7602,544.9872,577.72,542.0274,582.5407,549.85,576.5569" style="stroke:#181818;stroke-width:1;"/><text fill="#000000" font-family="sans-serif" font-size="13" lengthAdjust="spacing" textLength="63.0068" x="453" y="582.3638">&#171;include&#187;</text></g><!--link UC9 to UCLogin--><g class="link" data-entity-1="UC9" data-entity-2="UCLogin" data-source-line="64" data-uid="lnk45" id="link_UC9_UCLogin"><path d="M343.02,697.3769 C367.83,691.2269 396.69,683.0769 422,673.2969 C466.32,656.1769 478.02,651.4569 517,624.2969 C534.54,612.0669 548.1373,599.3089 559.5273,587.6489" fill="none" id="UC9-to-UCLogin" style="stroke:#181818;stroke-width:1;stroke-dasharray:7.0,7.0;"/><polygon fill="#181818" points="563.72,583.3569,554.5697,586.9998,560.2261,586.9336,560.2924,592.59,563.72,583.3569" style="stroke:#181818;stroke-width:1;"/><text fill="#000000" font-family="sans-serif" font-size="13" lengthAdjust="spacing" textLength="63.0068" x="453" y="620.3638">&#171;include&#187;</text></g><!--link UC10 to UCLogin--><g class="link" data-entity-1="UC10" data-entity-2="UCLogin" data-source-line="65" data-uid="lnk46" id="link_UC10_UCLogin"><path d="M365.56,772.2169 C415.48,756.7269 477.11,730.0769 517,686.2969 C545.31,655.2369 561.7159,613.7634 569.6159,590.2934" fill="none" id="UC10-to-UCLogin" style="stroke:#181818;stroke-width:1;stroke-dasharray:7.0,7.0;"/><polygon fill="#181818" points="571.53,584.6069,564.8679,591.8606,569.9349,589.3456,572.4499,594.4127,571.53,584.6069" style="stroke:#181818;stroke-width:1;"/><text fill="#000000" font-family="sans-serif" font-size="13" lengthAdjust="spacing" textLength="63.0068" x="453" y="682.3638">&#171;include&#187;</text></g><!--link UC11 to UCLogin--><g class="link" data-entity-1="UC11" data-entity-2="UCLogin" data-source-line="66" data-uid="lnk47" id="link_UC11_UCLogin"><path d="M355.35,860.3969 C377.45,854.2969 401.37,846.0669 422,835.2969 C470.18,810.1469 486.45,803.2469 517,758.2969 C555.45,701.7069 569.0398,624.7446 573.4998,591.1746" fill="none" id="UC11-to-UCLogin" style="stroke:#181818;stroke-width:1;stroke-dasharray:7.0,7.0;"/><polygon fill="#181818" points="574.29,585.2269,569.1395,593.6217,573.6315,590.1833,577.0699,594.6753,574.29,585.2269" style="stroke:#181818;stroke-width:1;"/><text fill="#000000" font-family="sans-serif" font-size="13" lengthAdjust="spacing" textLength="63.0068" x="453" y="754.3638">&#171;include&#187;</text></g><!--SRC=[VLJBRjim4BppAnQ-D3aaiFns4HWmL20maFPGmxclILeY8fCEITK8Ylvxbte4ecDB9mvdTxaxGyehNqXuBimU2zWv2IawoLWX3nwy0Qkot8DGLdAlZ6RkJUaJMZp22VaRPdBhFoW_qAYpWZAHUsD39Tiir-AeTBCUh3UGvkZtnWy0NRjcxBC032vw6S1Vne2-qabE60Ol9bEwIj-brRhclrM7XZ08SIvE-eL_L8PU0ce1JgBbESZtKfsEKlkcM1Adl2fv1e4ktnkqmZL1epZeXpdhmg00ONWPQhLnupXkgpBz9MOInwmvbyx1oKgXAhdXQ4H9cjpzthtSDpdJE6UZlRGaBfoLpoDjT-dioZnbq4WRhmwAOpYZxMNUgbZv1IY42ZGvSKFHdwZ9_wfWMsDnDU9IvcL_r1ULak6LER3gyjeWIT9EqgXnQu2rTcSIuxsKhig7FMqB8DdJxIiPxx6jUE7vizIaETqbeJ2Zj-3WG7URnYW-dFfiOyp-CKPoEcUugZjarGrzU5XLbwq3Hbqmxe995qoxODO5v5xjMrkyYqOH6aTe4g5fX6OHcaTe4Q5bVFemXcH8QqMpCxhS60UfDfeNfGX_awBMArUdMjiYF7Eu2u-H749hpTdTCveC7XzNxMy0liFJawfhh5R4JdhPQIyxxsKNlUoobqs6_NHoc_uF]--></g></svg>